<?xml version="1.0" standalone="no"?>
<!DOCTYPE svg PUBLIC "-//W3C//DTD SVG 20010904//EN"
 "http://www.w3.org/TR/2001/REC-SVG-20010904/DTD/svg10.dtd">
<svg version="1.0" xmlns="http://www.w3.org/2000/svg"
 width="300.000000pt" height="168.000000pt" viewBox="0 0 300.000000 168.000000"
 preserveAspectRatio="xMidYMid meet">
<metadata>
Created by potrace 1.10, written by Peter Selinger 2001-2011
</metadata>
<g transform="translate(0.000000,168.000000) scale(0.100000,-0.100000)"
fill="#000000" stroke="none">
<path d="M1003 1487 c-24 -5 -43 -13 -43 -17 0 -4 -13 -13 -29 -20 -34 -14
-101 -105 -101 -137 0 -12 -4 -24 -9 -27 -5 -3 -4 -24 1 -48 5 -24 10 -50 11
-58 3 -21 20 -39 31 -32 5 3 7 -2 3 -11 -5 -13 1 -15 36 -10 23 3 55 6 70 6
20 0 24 2 15 8 -10 7 -10 9 2 9 8 0 26 3 40 7 23 6 24 5 10 -13 -14 -19 -14
-19 8 0 18 16 27 17 46 8 19 -9 23 -8 22 5 -1 11 12 20 34 26 19 5 40 12 45
17 6 4 20 6 32 5 12 -1 20 2 18 6 -3 4 2 10 11 13 10 4 13 2 8 -6 -4 -6 -3 -8
3 -5 6 4 11 19 11 34 0 44 60 82 79 50 9 -15 76 -57 89 -57 13 1 -39 40 -52
40 -6 0 -18 9 -25 19 -16 22 -59 38 -59 22 0 -6 -7 -11 -16 -11 -10 0 -14 6
-10 15 3 8 1 15 -4 15 -6 0 -10 7 -10 16 0 8 -5 12 -11 8 -8 -4 -9 1 -5 17 3
13 3 18 0 11 -8 -18 -24 -4 -17 15 5 12 2 15 -10 10 -12 -4 -14 -2 -10 11 3 9
3 14 -1 10 -4 -3 -30 7 -58 23 -40 24 -57 28 -86 24 -28 -5 -33 -4 -22 4 18
12 10 12 -47 -2z m145 -56 c47 -24 77 -56 97 -103 27 -67 24 -72 -75 -111 -74
-30 -94 -35 -114 -26 -18 9 -31 7 -62 -9 -21 -11 -55 -24 -75 -30 l-37 -10
-13 42 c-32 94 -1 186 78 237 58 36 142 40 201 10z"/>
<path d="M1677 1183 c-3 -5 45 -8 106 -7 110 1 127 -2 210 -44 4 -2 7 0 7 5 0
9 -48 33 -67 33 -7 0 -13 5 -13 10 0 12 -236 14 -243 3z"/>
<path d="M2905 1126 c-63 -13 -183 -64 -152 -65 9 -1 39 10 66 24 30 16 73 28
114 32 37 3 67 10 67 14 0 11 -20 10 -95 -5z"/>
<path d="M2834 971 c4 -6 16 -11 27 -11 10 0 19 -4 19 -9 0 -9 30 -24 37 -18
5 6 -37 33 -66 42 -16 5 -21 4 -17 -4z"/>
<path d="M420 872 c-25 -2 -49 -8 -55 -13 -7 -7 9 -8 45 -4 30 3 112 6 182 8
71 1 128 5 128 10 0 7 -196 6 -300 -1z"/>
<path d="M2959 876 c-2 -2 -65 -10 -139 -16 -74 -7 -173 -23 -220 -36 -79 -22
-81 -23 -30 -18 30 4 66 11 80 16 14 5 77 13 140 18 159 13 210 20 210 31 0 9
-33 13 -41 5z"/>
<path d="M220 849 c-30 -5 -93 -12 -140 -16 -75 -7 -80 -8 -40 -13 25 -3 68
-2 95 2 28 4 80 10 118 14 37 4 67 11 67 15 0 10 -22 10 -100 -2z"/>
<path d="M936 821 c6 -7 58 -13 130 -16 91 -3 105 -2 59 4 -143 20 -200 24
-189 12z"/>
<path d="M1220 810 c-16 -5 4 -7 53 -5 43 2 81 6 84 9 9 9 -108 5 -137 -4z"/>
<path d="M1410 810 c-28 -6 -21 -8 38 -9 42 0 72 3 72 9 0 11 -57 11 -110 0z"/>
<path d="M2040 803 c-14 -3 -47 -11 -75 -18 -48 -13 -49 -14 -14 -14 19 -1 40
4 45 9 6 6 64 13 130 17 104 5 130 3 202 -17 86 -23 130 -22 166 5 17 13 18
15 3 15 -9 0 -17 -4 -17 -10 0 -15 -99 -12 -145 5 -39 14 -234 19 -295 8z"/>
</g>
</svg>
